# xmcd
#
# Track frame offsets:
#	150
#	12418
#	24699
#	43304
#	55979
#	67616
#	85641
#	99796
#	115834
#	132412
#	143091
#	159742
#	173601
#
# Disc length: 2570 seconds
#
# Revision: 1
# Processed by: cddbd v1.5.2PL0 Copyright (c) Steve Scherf et al.
# Submitted via: audiograbber 1.83.01
#
DISCID=a20a080d
DTITLE=Bob Wayne - Till The Wheels Fall Off 
DYEAR=2012
DGENRE=Country
TTITLE0=Till The Wheels Fall Off 
TTITLE1=There Ain't No Diesel Trucks In Heaven 
TTITLE2=All My Friends 
TTITLE3=Get There When I Get There 
TTITLE4=Fuck The Law 
TTITLE5=Lyza
TTITLE6=Devil's Son 
TTITLE7=Wives Of Three 
TTITLE8=Lost Vegas 
TTITLE9=All Those One Night Stands 
TTITLE10=Hunger In My Soul 
TTITLE11=A Pistol And A 100 Dollar Bill 
TTITLE12=Spread My Ashes On The Highway 
EXTD=
EXTT0=
EXTT1=
EXTT2=
EXTT3=
EXTT4=
EXTT5=
EXTT6=
EXTT7=
EXTT8=
EXTT9=
EXTT10=
EXTT11=
EXTT12=
PLAYORDER=
